<svg width="20" height="20" viewBox="0 0 20 20" fill="none" xmlns="http://www.w3.org/2000/svg">
<g id="Frame">
<path id="Vector" d="M7.74306 9.65275C7.74306 8.11865 6.4994 6.875 4.96528 6.875C3.43115 6.875 2.1875 8.11865 2.1875 9.65275V17.2917C2.1875 17.6752 2.49842 17.9861 2.88194 17.9861H7.04861C7.43214 17.9861 7.74306 17.6752 7.74306 17.2917V9.65275Z" stroke="#374151" stroke-width="0.833333" stroke-linecap="round" stroke-linejoin="round"/>
<path id="Vector_2" d="M8.43734 6.17982C9.58792 6.17982 10.5207 5.24708 10.5207 4.09649C10.5207 2.94589 9.58792 2.01315 8.43734 2.01315C7.28675 2.01315 6.354 2.94589 6.354 4.09649C6.354 5.24708 7.28675 6.17982 8.43734 6.17982Z" stroke="#374151" stroke-width="0.833333" stroke-linecap="round" stroke-linejoin="round"/>
<path id="Vector_3" d="M8.09033 4.09716L8.78479 3.40271" stroke="#374151" stroke-width="0.833333" stroke-linecap="round" stroke-linejoin="round"/>
<path id="Vector_4" d="M2.1875 11.0417H7.74306" stroke="#374151" stroke-width="0.833333" stroke-linecap="round" stroke-linejoin="round"/>
<path id="Vector_5" d="M2.1875 15.2083H7.74306" stroke="#374151" stroke-width="0.833333" stroke-linecap="round" stroke-linejoin="round"/>
<path id="Vector_6" d="M14.6873 9.65275C14.6873 8.11865 13.4437 6.875 11.9096 6.875C10.3754 6.875 9.13184 8.11865 9.13184 9.65275V17.2917C9.13184 17.6752 9.44267 17.9861 9.82625 17.9861H13.9929C14.3764 17.9861 14.6873 17.6752 14.6873 17.2917V9.65275Z" stroke="#374151" stroke-width="0.833333" stroke-linecap="round" stroke-linejoin="round"/>
<path id="Vector_7" d="M9.13184 11.0417H14.6873" stroke="#374151" stroke-width="0.833333" stroke-linecap="round" stroke-linejoin="round"/>
<path id="Vector_8" d="M9.13184 15.2083H14.6873" stroke="#374151" stroke-width="0.833333" stroke-linecap="round" stroke-linejoin="round"/>
<path id="Vector_9" d="M10.521 4.09708H13.9932C15.5273 4.09708 16.771 5.34073 16.771 6.87486V11.0415" stroke="#374151" stroke-width="0.833333" stroke-linecap="round" stroke-linejoin="round"/>
<path id="Vector_10" d="M16.7707 13.1256C17.346 13.1256 17.8123 12.6592 17.8123 12.0839C17.8123 11.5087 17.346 11.0422 16.7707 11.0422C16.1953 11.0422 15.729 11.5087 15.729 12.0839C15.729 12.6592 16.1953 13.1256 16.7707 13.1256Z" stroke="#374151" stroke-width="0.833333" stroke-linecap="round" stroke-linejoin="round"/>
<path id="Vector_11" d="M16.771 13.125V15.5556" stroke="#374151" stroke-width="0.833333" stroke-linecap="round" stroke-linejoin="round"/>
</g>
</svg>
