<svg width="36" height="37" viewBox="0 0 36 37" fill="none" xmlns="http://www.w3.org/2000/svg">
<g id="Social Media Icon Square/LinkedIn">
<g id="Group 73">
<rect id="Social Media Icon" y="0.393066" width="36" height="36" rx="8" fill="#F2F1FA"/>
<path id="LinkedIn" d="M9 11.813C9 11.2358 9.20271 10.7596 9.60811 10.3844C10.0135 10.0092 10.5405 9.82162 11.1892 9.82162C11.8263 9.82162 12.3417 10.0063 12.7355 10.3757C13.1409 10.7567 13.3436 11.2531 13.3436 11.8649C13.3436 12.419 13.1467 12.8808 12.7529 13.2502C12.3475 13.6311 11.8147 13.8216 11.1544 13.8216H11.1371C10.5 13.8216 9.98456 13.6311 9.59073 13.2502C9.19691 12.8692 9 12.3902 9 11.813ZM9.22587 26.9645V15.3974H13.083V26.9645H9.22587ZM15.2201 26.9645H19.0772V20.5056C19.0772 20.1016 19.1236 19.7899 19.2162 19.5705C19.3784 19.178 19.6245 18.8461 19.9546 18.5749C20.2847 18.3036 20.6988 18.1679 21.1969 18.1679C22.4942 18.1679 23.1429 19.0395 23.1429 20.7827V26.9645H27V20.3324C27 18.6239 26.5946 17.3281 25.7838 16.445C24.973 15.5619 23.9015 15.1203 22.5695 15.1203C21.0753 15.1203 19.9112 15.761 19.0772 17.0424V17.077H19.0598L19.0772 17.0424V15.3974H15.2201C15.2432 15.7668 15.2548 16.9154 15.2548 18.8433C15.2548 20.7711 15.2432 23.4782 15.2201 26.9645Z" fill="#8D8BA7"/>
</g>
</g>
</svg>
