<svg width="16" height="19" viewBox="0 0 16 19" fill="none" xmlns="http://www.w3.org/2000/svg">
<g id="Password">
<path id="Line" d="M12.1667 7.61646H3.83333C2.68274 7.61646 1.75 8.5492 1.75 9.69979V15.9498C1.75 17.1004 2.68274 18.0331 3.83333 18.0331H12.1667C13.3173 18.0331 14.25 17.1004 14.25 15.9498V9.69979C14.25 8.5492 13.3173 7.61646 12.1667 7.61646Z" stroke="white" stroke-width="1.66667" stroke-linecap="round" stroke-linejoin="round"/>
<path id="Line_2" d="M7.99992 1.36646C6.89485 1.36646 5.83504 1.80544 5.05364 2.58684C4.27224 3.36825 3.83325 4.42805 3.83325 5.53312V7.61645H12.1666V5.53312C12.1666 4.42805 11.7276 3.36825 10.9462 2.58684C10.1648 1.80544 9.10499 1.36646 7.99992 1.36646V1.36646Z" stroke="white" stroke-width="1.66667" stroke-linecap="round" stroke-linejoin="round"/>
</g>
</svg>
